<?xml version="1.0" encoding="utf-8" standalone="no"?>
<!DOCTYPE svg PUBLIC "-//W3C//DTD SVG 1.1//EN"
  "http://www.w3.org/Graphics/SVG/1.1/DTD/svg11.dtd">
<!-- Created with matplotlib (http://matplotlib.sourceforge.net/) -->
<svg height="992pt" version="1.1" viewBox="0 0 1728 992" width="1728pt" xmlns="http://www.w3.org/2000/svg" xmlns:xlink="http://www.w3.org/1999/xlink">
 <defs>
  <style type="text/css">
*{stroke-linecap:square;stroke-linejoin:round;}
  </style>
 </defs>
 <g id="figure_1">
  <g id="patch_1">
   <path d="
M0 992.7
L1728 992.7
L1728 0
L0 0
z
" style="fill:#ffffff;"/>
  </g>
  <g id="axes_1">
   <g id="patch_2">
    <path d="
M216 332.846
L1555.2 332.846
L1555.2 99.27
L216 99.27
z
" style="fill:#ffffff;"/>
   </g>
   <g id="line2d_1">
    <path clip-path="url(#pec620c0aee)" d="
M217.485 319.62
L217.677 307.501
L217.767 294.303
L218.04 270.922
L218.055 281.141
L218.898 209.343
L218.917 219.413
L219.755 147.635
L219.782 157.731
L234.203 211.454
L236.066 223.903
L237.903 219.165
L238.162 228.502
L241.9 256.59
L245.636 247.404
L247.462 242.595
L247.837 260.219
L249.3 255.474
L251.136 250.727
L251.944 290.733
L254.687 276.163
L256.016 276.429
L256.067 268.946
L257.437 269.162
L258.794 261.819
L259.093 286.055
L263.22 264.312
L263.24 272.216
L265.956 257.629
L266.111 280.847
L270.164 258.706
L270.286 266.776
L271.54 259.541
L272.918 252.312
L272.967 274.94
L275.662 260.157
L277.04 252.922
L277.524 263.08
L278.416 255.83
L279.769 248.452
L280.038 272.105
L284.17 250.362
L284.349 259.179
L285.537 251.886
L286.92 244.666
L287.109 268.318
L291.233 246.578
L291.385 255.2
L292.582 247.81
L293.915 240.336
L293.994 262.972
L298.083 241.057
L298.237 249.48
L299.463 242.242
L300.84 235.004
L300.96 258.233
L305.051 236.306
L305.312 245.311
L306.406 237.939
L307.78 230.698
L308.112 254.934
L312.208 233.019
L312.647 243.057
L313.574 235.76
L314.939 228.455
L315.452 253.568
L319.533 231.574
L320.161 242.557
L320.876 235.141
L322.237 227.83
L322.82 253.238
L326.884 231.15
L327.336 241.089
L328.26 233.857
L329.594 226.374
L330.209 251.775
L334.314 229.886
L334.557 238.893
L335.692 231.661
L337.06 224.371
L337.655 250.029
L341.78 228.28
L342.302 238.706
L343.158 231.471
L344.515 224.12
L345.342 250.981
L349.454 229.165
L350.183 240.861
L350.792 233.41
L352.17 226.172
L352.922 252.595
L356.967 230.406
L357.663 241.559
L358.319 234.178
L359.696 226.937
L360.046 250.882
L364.114 228.835
L364.312 237.398
L365.471 230.035
L366.846 222.788
L367.145 246.59
L371.226 224.584
L371.548 233.892
L372.57 226.485
L373.951 219.255
L374.19 242.911
L378.268 220.902
L378.593 230.21
L379.647 222.975
L380.989 215.556
L381.314 239.501
L385.426 217.67
L385.848 227.705
L386.781 220.341
L388.158 213.109
L388.465 237.048
L392.542 215.022
L392.914 224.54
L393.897 217.2
L395.252 209.845
L395.482 233.206
L398.197 218.517
L399.578 211.29
L399.604 219.066
L400.959 211.833
L402.151 226.169
L402.329 204.563
L403.71 218.946
L406.431 204.283
L406.476 212.178
L407.807 204.94
L409.04 219.571
L409.188 197.711
L410.518 212.058
L413.263 197.533
L413.889 208.452
L414.6 201.01
L415.85 215.074
L415.923 193.492
L417.273 207.667
L420.006 193.063
L420.412 202.8
L421.379 195.541
L422.716 188.085
L422.818 210.949
L426.907 188.987
L427.087 197.568
L428.268 190.242
L429.625 182.885
L429.862 206.54
L432.618 192.049
L433.973 192.47
L433.989 184.768
L435.367 185.22
L436.735 177.947
L436.778 200.94
L439.502 186.304
L440.851 178.911
L440.998 187.238
L443.58 172.625
L443.929 196.858
L448.046 175.042
L448.065 182.893
L450.759 168.187
L450.762 190.546
L453.44 175.641
L454.756 175.372
L454.796 168.286
L456.157 168.052
L457.535 160.823
L457.75 184.181
L460.434 169.311
L461.812 162.079
L462.085 171.016
L463.153 163.562
L464.524 156.298
L464.714 179.512
L470.284 165.556
L470.569 182.759
L472.149 178.178
L474.013 173.577
L475.163 215.477
L480.76 201.696
L480.922 218.376
L484.502 209.255
L485.208 249.112
L490.778 235.194
L490.943 251.755
L492.658 247.244
L494.536 242.715
L495.278 282.864
L498.968 273.474
L500.825 268.849
L501.571 288.449
L502.677 283.792
L504.544 279.194
L505.161 318.321
L506.104 294.011
L506.365 273.819
L506.593 281.956
L507.083 245.486
L507.085 261.778
L507.576 249.72
L508.04 233.29
L508.79 213.06
L508.992 200.969
L509.603 185.258
L512.31 170.531
L513.676 172.806
L514.057 180.12
L515.063 165.623
L516.892 190.587
L519.622 175.968
L520.985 168.642
L521.525 179.191
L522.328 171.763
L523.711 164.543
L523.883 187.947
L528.006 166.198
L528.319 175.69
L529.369 168.388
L530.748 161.144
L530.902 184.654
L535.011 162.785
L535.667 174.076
L536.349 166.631
L537.719 159.369
L537.758 181.854
L543.284 167.717
L544.117 187.682
L545.151 183.083
L547.018 178.496
L547.965 219.226
L553.553 205.387
L553.941 223.235
L555.398 218.517
L557.227 213.731
L557.527 251.106
L563.054 236.966
L563.502 254.814
L564.939 250.339
L566.778 245.62
L567.413 284.747
L571.154 275.594
L573.018 270.993
L573.095 287.249
L574.876 282.619
L576.759 278.14
L577.749 319.711
L578.691 295.39
L578.902 274.709
L579.14 283.103
L579.966 247.606
L580.08 250.379
L580.513 235.247
L581.29 215.13
L581.491 203.066
L583.233 154.274
L583.501 142.21
L583.992 130.155
L584.386 127.825
L602.421 211.366
L604.284 206.762
L606.136 219.737
L606.508 224.394
L607.999 215.136
L610.137 252.56
L611.997 243.346
L615.704 234.047
L616.285 252.855
L617.571 248.26
L619.433 243.661
L619.645 280.744
L625.223 266.896
L626.153 287.661
L627.079 283.013
L628.944 278.411
L629.261 316.084
L630.202 291.766
L630.355 270.785
L630.648 279.489
L631.103 241.79
L631.138 258.718
L631.589 246.458
L633.049 196.899
L633.436 180.219
L633.534 184.832
L634.882 172.832
L636.229 165.433
L637.575 166.908
L637.858 174.312
L638.955 159.682
L639.896 179.638
L644.024 157.88
L644.366 167.55
L645.405 160.312
L646.297 180.461
L646.786 173.232
L652.34 159.258
L652.713 176.852
L654.206 172.263
L655.683 206.044
L661.224 191.965
L661.506 209.007
L663.068 204.318
L664.791 238.873
L664.931 234.266
L666.772 229.536
L670.523 220.452
L671.098 239.305
L672.393 234.75
L674.025 269.55
L674.264 264.963
L679.924 251.533
L680.234 269.366
L681.766 264.671
L683.423 299.883
L683.65 295.387
L687.085 254.619
L687.667 261.766
L687.94 251.717
L691.414 211.285
L691.721 217.235
L695.213 177.486
L695.603 183.909
L699.684 161.906
L699.778 169.971
L701.053 162.689
L702.384 184.931
L706.463 162.928
L706.672 171.614
L707.82 164.271
L708.784 184.417
L709.197 177.179
L712.958 168.123
L714.788 163.36
L715.435 182.648
L716.617 177.866
L718.239 212.429
L718.488 207.877
L724.077 194.064
L724.449 211.839
L725.946 207.282
L727.647 237.997
L727.83 202.794
L729.687 233.363
L733.448 224.303
L734.022 243.346
L735.329 238.829
L736.871 273.395
L737.182 268.741
L739.021 263.997
L742.758 254.847
L743.195 272.911
L744.6 268.204
L746.116 302.195
L746.409 297.305
L748.12 277.168
L749.89 257.322
L750.299 263.848
L750.757 253.848
L754.205 212.893
L754.583 219.086
L756.339 199.194
L758.058 178.885
L758.312 184.543
L762.361 162.382
L762.627 171.206
L763.728 163.895
L764.744 184.193
L768.771 161.933
L769.503 173.194
L770.148 165.953
L771.359 187.267
L774.114 172.779
L775.469 165.419
L775.777 174.823
L776.822 167.463
L777.707 187.317
L778.168 179.915
L783.736 165.974
L784.411 185.285
L785.561 180.473
L787.18 214.879
L787.426 210.298
L792.972 196.257
L793.562 214.987
L794.811 210.254
L796.265 243.72
L796.661 239.045
L802.256 225.273
L803.37 247.144
L804.134 242.61
L805.573 276.479
L805.999 271.877
L811.6 258.099
L812.199 277.191
L813.428 272.409
L815.028 306.919
L815.291 302.321
L817.917 272.461
L818.031 272.73
L818.761 262.595
L819.145 268.934
L819.592 258.747
L821.349 238.864
L822.155 228.298
L822.241 228.998
L823.092 218.219
L823.519 224.952
L827.027 185.039
L827.403 191.466
L830.827 150.382
L831.2 156.385
L843.976 211.276
L847.681 201.959
L848.776 223.384
L849.55 218.803
L851.176 253.276
L853.059 248.776
L856.736 239.317
L857.814 260.803
L858.617 256.295
L860.254 291.089
L860.474 286.464
L864.225 277.372
L866.074 272.703
L866.944 293.273
L867.903 288.484
L869.53 323.141
L870.245 306.406
L870.734 294.327
L871.004 274.374
L871.214 282.23
L871.541 257.407
L871.709 262.333
L872.2 245.363
L873.455 213.29
L873.658 201.247
L873.951 196.096
L874.12 183.886
L876.86 169.314
L878.241 171.033
L878.456 178.257
L879.621 183.915
L880.505 191.139
L881.834 176.403
L884.545 161.693
L885.176 172.447
L885.928 165.229
L886.7 184.289
L890.455 175.214
L893.282 204.228
L894.598 183.039
L895.46 232.82
L896.485 199.76
L898.346 228.21
L900.207 223.614
L902.059 238.934
L902.845 243.585
L903.927 267.536
L905.27 272.128
L907.108 262.806
L910.801 253.428
L911.408 272.193
L912.658 267.565
L914.247 301.784
L915.99 281.822
L916.69 270.315
L916.826 271.673
L917.718 260.435
L918.059 266.508
L918.589 256.525
L920.331 236.546
L921.115 225.501
L921.173 226.423
L922.047 215.515
L922.305 221.077
L924.011 200.917
L924.829 200.006
L924.872 189.991
L925.768 180.131
L926.161 186.409
L928.852 171.585
L930.229 172.251
L930.307 179.486
L931.632 165.15
L932.478 184.879
L935.19 170.172
L936.562 162.914
L936.702 171.255
L937.941 164.017
L938.772 183.638
L944.258 169.287
L944.535 185.977
L946.115 181.334
L947.586 214.66
L949.397 209.784
L953.096 200.452
L953.398 217.425
L954.965 212.844
L956.453 246.435
L956.829 241.845
L960.571 232.712
L962.392 227.909
L962.511 244.19
L964.228 239.457
L965.534 272.219
L966.069 267.506
L969.745 258.032
L971.611 253.445
L971.875 270.371
L973.477 265.778
L974.839 298.861
L975.345 294.274
L977.083 274.28
L977.831 263.147
L977.952 264.286
L978.845 253.273
L979.087 258.978
L980.852 239.127
L981.591 238.096
L981.744 228.222
L982.604 218.181
L982.923 224.365
L984.672 204.42
L985.421 203.358
L985.516 193.238
L986.35 183.06
L986.646 188.674
L989.265 158.432
L989.281 168.283
L990.157 148.555
L990.412 154.344
L1003.57 211.282
L1005.43 206.692
L1007.28 219.325
L1007.62 224.032
L1009.1 214.528
L1010.53 247.626
L1014.18 238.055
L1016.05 233.468
L1016.26 250.003
L1017.9 245.355
L1019.42 279.106
L1024.98 265.136
L1025.12 281.445
L1026.82 276.698
L1028.27 310.149
L1029.53 295.439
L1030.38 285.346
L1031.03 273.512
L1031.25 275.357
L1032.12 263.541
L1032.59 270.125
L1032.99 260.14
L1034.77 240.376
L1035.41 238.89
L1035.66 229.042
L1036.53 219.03
L1036.77 224.955
L1038.5 204.905
L1039.24 203.676
L1039.39 193.787
L1040.28 183.892
L1040.55 189.828
L1042.28 169.804
L1043.12 169.121
L1043.18 159.27
L1044.03 149.171
L1044.36 155.179
L1057.4 211.466
L1059.26 206.882
L1061.13 218.619
L1061.22 223.206
L1062.98 213.968
L1064.3 247.086
L1066.13 242.289
L1069.86 233.118
L1070.07 249.88
L1071.69 245.083
L1073.23 279.065
L1078.71 264.657
L1078.94 281.121
L1080.57 276.522
L1082.15 310.394
L1082.44 305.813
L1084.17 285.778
L1084.9 274.645
L1085.07 275.918
L1085.91 264.528
L1086.3 270.905
L1086.8 261.019
L1088.57 241.226
L1089.2 239.661
L1089.44 229.687
L1090.32 219.749
L1090.61 225.842
L1092.29 205.594
L1093.03 204.105
L1093.18 194.239
L1094.08 184.377
L1094.37 190.184
L1096.09 170.12
L1096.85 169.007
L1096.96 159.019
L1097.82 148.949
L1098.23 155.337
L1111.24 211.483
L1113.07 206.703
L1114.9 219.597
L1115.31 224.379
L1116.74 214.879
L1118.26 248.616
L1123.83 234.736
L1123.96 251.124
L1125.69 246.499
L1127.21 280.52
L1127.56 275.968
L1133.16 262.195
L1133.58 280.274
L1134.99 275.521
L1136.4 308.972
L1136.86 304.391
L1138.55 284.172
L1139.44 274.303
L1139.69 275.077
L1140.31 265.08
L1140.72 271.378
L1141.19 261.448
L1144.66 221.212
L1144.99 227.235
L1148.43 186.49
L1148.75 192.277
L1150.51 172.42
L1151.32 161.725
L1151.36 162.344
L1152.23 151.725
L1152.53 157.655
L1165.07 211.252
L1168.77 201.921
L1169.39 220.677
L1170.59 215.871
L1172.14 249.658
L1177.7 235.699
L1178.18 253.921
L1179.57 249.325
L1181.05 283.147
L1181.4 278.376
L1183.26 273.784
L1186.92 264.193
L1187.21 281.165
L1188.78 276.578
L1190.24 310.046
L1192.37 285.372
L1192.97 273.419
L1193.24 275.39
L1194.11 263.395
L1194.41 269.299
L1194.97 259.249
L1196.73 239.428
L1197.4 238.026
L1197.6 228.032
L1198.47 218.055
L1198.75 223.994
L1201.33 193.62
L1201.4 203.795
L1202.22 183.743
L1202.58 189.886
L1204.35 170.055
L1205.02 168.709
L1205.22 158.753
L1206.08 148.674
L1206.37 154.631
L1219.5 211.466
L1221.34 206.724
L1223.16 219.264
L1223.53 224.114
L1225.03 214.668
L1226.5 248.298
L1230.17 238.788
L1232.03 234.16
L1232.97 254.712
L1233.89 250.067
L1235.38 283.755
L1235.72 278.969
L1239.43 269.702
L1241.25 264.882
L1241.31 280.668
L1243.07 275.854
L1244.77 310.508
L1244.9 305.714
L1248.36 264.925
L1248.7 270.966
L1249.23 260.978
L1251 241.147
L1251.59 239.366
L1251.87 229.39
L1252.72 219.334
L1252.98 225.139
L1254.76 205.325
L1255.51 204.414
L1255.64 194.508
L1256.54 184.636
L1256.79 190.625
L1258.52 170.636
L1259.21 169.197
L1259.38 159.112
L1260.26 149.194
L1260.59 155.261
L1273.63 211.579
L1275.49 206.955
L1277.36 223.711
L1278.36 228.306
L1279.21 219.013
L1280.71 253.194
L1280.71 253.194" style="fill:none;stroke:#0000ff;"/>
   </g>
   <g id="matplotlib.axis_1">
    <g id="xtick_1">
     <g id="line2d_2">
      <defs>
       <path d="
M0 0
L0 -4" id="m0012dd4eef" style="stroke:#000000;stroke-linecap:butt;stroke-width:0.5;"/>
      </defs>
      <g>
       <use style="stroke:#000000;stroke-linecap:butt;stroke-width:0.5;" x="333.5400002" xlink:href="#m0012dd4eef" y="332.846470588"/>
      </g>
     </g>
     <g id="line2d_3">
      <defs>
       <path d="
M0 0
L0 4" id="m476344969c" style="stroke:#000000;stroke-linecap:butt;stroke-width:0.5;"/>
      </defs>
      <g>
       <use style="stroke:#000000;stroke-linecap:butt;stroke-width:0.5;" x="333.5400002" xlink:href="#m476344969c" y="99.27"/>
      </g>
     </g>
     <g id="text_1">
      <!-- 500 -->
      <defs>
       <path d="
M31.7812 66.4062
Q24.1719 66.4062 20.3281 58.9062
Q16.5 51.4219 16.5 36.375
Q16.5 21.3906 20.3281 13.8906
Q24.1719 6.39062 31.7812 6.39062
Q39.4531 6.39062 43.2812 13.8906
Q47.125 21.3906 47.125 36.375
Q47.125 51.4219 43.2812 58.9062
Q39.4531 66.4062 31.7812 66.4062
M31.7812 74.2188
Q44.0469 74.2188 50.5156 64.5156
Q56.9844 54.8281 56.9844 36.375
Q56.9844 17.9688 50.5156 8.26562
Q44.0469 -1.42188 31.7812 -1.42188
Q19.5312 -1.42188 13.0625 8.26562
Q6.59375 17.9688 6.59375 36.375
Q6.59375 54.8281 13.0625 64.5156
Q19.5312 74.2188 31.7812 74.2188" id="BitstreamVeraSans-Roman-30"/>
       <path d="
M10.7969 72.9062
L49.5156 72.9062
L49.5156 64.5938
L19.8281 64.5938
L19.8281 46.7344
Q21.9688 47.4688 24.1094 47.8281
Q26.2656 48.1875 28.4219 48.1875
Q40.625 48.1875 47.75 41.5
Q54.8906 34.8125 54.8906 23.3906
Q54.8906 11.625 47.5625 5.09375
Q40.2344 -1.42188 26.9062 -1.42188
Q22.3125 -1.42188 17.5469 -0.640625
Q12.7969 0.140625 7.71875 1.70312
L7.71875 11.625
Q12.1094 9.23438 16.7969 8.0625
Q21.4844 6.89062 26.7031 6.89062
Q35.1562 6.89062 40.0781 11.3281
Q45.0156 15.7656 45.0156 23.3906
Q45.0156 31 40.0781 35.4375
Q35.1562 39.8906 26.7031 39.8906
Q22.75 39.8906 18.8125 39.0156
Q14.8906 38.1406 10.7969 36.2812
z
" id="BitstreamVeraSans-Roman-35"/>
      </defs>
      <g transform="translate(322.9490627 345.752720588)scale(0.12 -0.12)">
       <use xlink:href="#BitstreamVeraSans-Roman-35"/>
       <use x="63.623046875" xlink:href="#BitstreamVeraSans-Roman-30"/>
       <use x="127.24609375" xlink:href="#BitstreamVeraSans-Roman-30"/>
      </g>
     </g>
    </g>
    <g id="xtick_2">
     <g id="line2d_4">
      <g>
       <use style="stroke:#000000;stroke-linecap:butt;stroke-width:0.5;" x="601.380000114" xlink:href="#m0012dd4eef" y="332.846470588"/>
      </g>
     </g>
     <g id="line2d_5">
      <g>
       <use style="stroke:#000000;stroke-linecap:butt;stroke-width:0.5;" x="601.380000114" xlink:href="#m476344969c" y="99.27"/>
      </g>
     </g>
     <g id="text_2">
      <!-- 1000 -->
      <defs>
       <path d="
M12.4062 8.29688
L28.5156 8.29688
L28.5156 63.9219
L10.9844 60.4062
L10.9844 69.3906
L28.4219 72.9062
L38.2812 72.9062
L38.2812 8.29688
L54.3906 8.29688
L54.3906 0
L12.4062 0
z
" id="BitstreamVeraSans-Roman-31"/>
      </defs>
      <g transform="translate(587.167500114 345.752720588)scale(0.12 -0.12)">
       <use xlink:href="#BitstreamVeraSans-Roman-31"/>
       <use x="63.623046875" xlink:href="#BitstreamVeraSans-Roman-30"/>
       <use x="127.24609375" xlink:href="#BitstreamVeraSans-Roman-30"/>
       <use x="190.869140625" xlink:href="#BitstreamVeraSans-Roman-30"/>
      </g>
     </g>
    </g>
    <g id="xtick_3">
     <g id="line2d_6">
      <g>
       <use style="stroke:#000000;stroke-linecap:butt;stroke-width:0.5;" x="869.220000148" xlink:href="#m0012dd4eef" y="332.846470588"/>
      </g>
     </g>
     <g id="line2d_7">
      <g>
       <use style="stroke:#000000;stroke-linecap:butt;stroke-width:0.5;" x="869.220000148" xlink:href="#m476344969c" y="99.27"/>
      </g>
     </g>
     <g id="text_3">
      <!-- 1500 -->
      <g transform="translate(855.007500148 345.752720588)scale(0.12 -0.12)">
       <use xlink:href="#BitstreamVeraSans-Roman-31"/>
       <use x="63.623046875" xlink:href="#BitstreamVeraSans-Roman-35"/>
       <use x="127.24609375" xlink:href="#BitstreamVeraSans-Roman-30"/>
       <use x="190.869140625" xlink:href="#BitstreamVeraSans-Roman-30"/>
      </g>
     </g>
    </g>
    <g id="xtick_4">
     <g id="line2d_8">
      <g>
       <use style="stroke:#000000;stroke-linecap:butt;stroke-width:0.5;" x="1137.06000018" xlink:href="#m0012dd4eef" y="332.846470588"/>
      </g>
     </g>
     <g id="line2d_9">
      <g>
       <use style="stroke:#000000;stroke-linecap:butt;stroke-width:0.5;" x="1137.06000018" xlink:href="#m476344969c" y="99.27"/>
      </g>
     </g>
     <g id="text_4">
      <!-- 2000 -->
      <defs>
       <path d="
M19.1875 8.29688
L53.6094 8.29688
L53.6094 0
L7.32812 0
L7.32812 8.29688
Q12.9375 14.1094 22.625 23.8906
Q32.3281 33.6875 34.8125 36.5312
Q39.5469 41.8438 41.4219 45.5312
Q43.3125 49.2188 43.3125 52.7812
Q43.3125 58.5938 39.2344 62.25
Q35.1562 65.9219 28.6094 65.9219
Q23.9688 65.9219 18.8125 64.3125
Q13.6719 62.7031 7.8125 59.4219
L7.8125 69.3906
Q13.7656 71.7812 18.9375 73
Q24.125 74.2188 28.4219 74.2188
Q39.75 74.2188 46.4844 68.5469
Q53.2188 62.8906 53.2188 53.4219
Q53.2188 48.9219 51.5312 44.8906
Q49.8594 40.875 45.4062 35.4062
Q44.1875 33.9844 37.6406 27.2188
Q31.1094 20.4531 19.1875 8.29688" id="BitstreamVeraSans-Roman-32"/>
      </defs>
      <g transform="translate(1122.62812518 345.752720588)scale(0.12 -0.12)">
       <use xlink:href="#BitstreamVeraSans-Roman-32"/>
       <use x="63.623046875" xlink:href="#BitstreamVeraSans-Roman-30"/>
       <use x="127.24609375" xlink:href="#BitstreamVeraSans-Roman-30"/>
       <use x="190.869140625" xlink:href="#BitstreamVeraSans-Roman-30"/>
      </g>
     </g>
    </g>
    <g id="xtick_5">
     <g id="line2d_10">
      <g>
       <use style="stroke:#000000;stroke-linecap:butt;stroke-width:0.5;" x="1404.9000001" xlink:href="#m0012dd4eef" y="332.846470588"/>
      </g>
     </g>
     <g id="line2d_11">
      <g>
       <use style="stroke:#000000;stroke-linecap:butt;stroke-width:0.5;" x="1404.9000001" xlink:href="#m476344969c" y="99.27"/>
      </g>
     </g>
     <g id="text_5">
      <!-- 2500 -->
      <g transform="translate(1390.4681251 345.752720588)scale(0.12 -0.12)">
       <use xlink:href="#BitstreamVeraSans-Roman-32"/>
       <use x="63.623046875" xlink:href="#BitstreamVeraSans-Roman-35"/>
       <use x="127.24609375" xlink:href="#BitstreamVeraSans-Roman-30"/>
       <use x="190.869140625" xlink:href="#BitstreamVeraSans-Roman-30"/>
      </g>
     </g>
    </g>
    <g id="text_6">
     <!-- +1.357994e9 -->
     <defs>
      <path d="
M40.5781 39.3125
Q47.6562 37.7969 51.625 33
Q55.6094 28.2188 55.6094 21.1875
Q55.6094 10.4062 48.1875 4.48438
Q40.7656 -1.42188 27.0938 -1.42188
Q22.5156 -1.42188 17.6562 -0.515625
Q12.7969 0.390625 7.625 2.20312
L7.625 11.7188
Q11.7188 9.32812 16.5938 8.10938
Q21.4844 6.89062 26.8125 6.89062
Q36.0781 6.89062 40.9375 10.5469
Q45.7969 14.2031 45.7969 21.1875
Q45.7969 27.6406 41.2812 31.2656
Q36.7656 34.9062 28.7188 34.9062
L20.2188 34.9062
L20.2188 43.0156
L29.1094 43.0156
Q36.375 43.0156 40.2344 45.9219
Q44.0938 48.8281 44.0938 54.2969
Q44.0938 59.9062 40.1094 62.9062
Q36.1406 65.9219 28.7188 65.9219
Q24.6562 65.9219 20.0156 65.0312
Q15.375 64.1562 9.8125 62.3125
L9.8125 71.0938
Q15.4375 72.6562 20.3438 73.4375
Q25.25 74.2188 29.5938 74.2188
Q40.8281 74.2188 47.3594 69.1094
Q53.9062 64.0156 53.9062 55.3281
Q53.9062 49.2656 50.4375 45.0938
Q46.9688 40.9219 40.5781 39.3125" id="BitstreamVeraSans-Roman-33"/>
      <path d="
M8.20312 72.9062
L55.0781 72.9062
L55.0781 68.7031
L28.6094 0
L18.3125 0
L43.2188 64.5938
L8.20312 64.5938
z
" id="BitstreamVeraSans-Roman-37"/>
      <path d="
M37.7969 64.3125
L12.8906 25.3906
L37.7969 25.3906
z

M35.2031 72.9062
L47.6094 72.9062
L47.6094 25.3906
L58.0156 25.3906
L58.0156 17.1875
L47.6094 17.1875
L47.6094 0
L37.7969 0
L37.7969 17.1875
L4.89062 17.1875
L4.89062 26.7031
z
" id="BitstreamVeraSans-Roman-34"/>
      <path d="
M10.9844 1.51562
L10.9844 10.5
Q14.7031 8.73438 18.5 7.8125
Q22.3125 6.89062 25.9844 6.89062
Q35.75 6.89062 40.8906 13.4531
Q46.0469 20.0156 46.7812 33.4062
Q43.9531 29.2031 39.5938 26.9531
Q35.25 24.7031 29.9844 24.7031
Q19.0469 24.7031 12.6719 31.3125
Q6.29688 37.9375 6.29688 49.4219
Q6.29688 60.6406 12.9375 67.4219
Q19.5781 74.2188 30.6094 74.2188
Q43.2656 74.2188 49.9219 64.5156
Q56.5938 54.8281 56.5938 36.375
Q56.5938 19.1406 48.4062 8.85938
Q40.2344 -1.42188 26.4219 -1.42188
Q22.7031 -1.42188 18.8906 -0.6875
Q15.0938 0.046875 10.9844 1.51562
M30.6094 32.4219
Q37.25 32.4219 41.125 36.9531
Q45.0156 41.5 45.0156 49.4219
Q45.0156 57.2812 41.125 61.8438
Q37.25 66.4062 30.6094 66.4062
Q23.9688 66.4062 20.0938 61.8438
Q16.2188 57.2812 16.2188 49.4219
Q16.2188 41.5 20.0938 36.9531
Q23.9688 32.4219 30.6094 32.4219" id="BitstreamVeraSans-Roman-39"/>
      <path d="
M46 62.7031
L46 35.5
L73.1875 35.5
L73.1875 27.2031
L46 27.2031
L46 0
L37.7969 0
L37.7969 27.2031
L10.5938 27.2031
L10.5938 35.5
L37.7969 35.5
L37.7969 62.7031
z
" id="BitstreamVeraSans-Roman-2b"/>
      <path d="
M10.6875 12.4062
L21 12.4062
L21 0
L10.6875 0
z
" id="BitstreamVeraSans-Roman-2e"/>
      <path d="
M56.2031 29.5938
L56.2031 25.2031
L14.8906 25.2031
Q15.4844 15.9219 20.4844 11.0625
Q25.4844 6.20312 34.4219 6.20312
Q39.5938 6.20312 44.4531 7.46875
Q49.3125 8.73438 54.1094 11.2812
L54.1094 2.78125
Q49.2656 0.734375 44.1875 -0.34375
Q39.1094 -1.42188 33.8906 -1.42188
Q20.7969 -1.42188 13.1562 6.1875
Q5.51562 13.8125 5.51562 26.8125
Q5.51562 40.2344 12.7656 48.1094
Q20.0156 56 32.3281 56
Q43.3594 56 49.7812 48.8906
Q56.2031 41.7969 56.2031 29.5938
M47.2188 32.2344
Q47.125 39.5938 43.0938 43.9844
Q39.0625 48.3906 32.4219 48.3906
Q24.9062 48.3906 20.3906 44.1406
Q15.875 39.8906 15.1875 32.1719
z
" id="BitstreamVeraSans-Roman-65"/>
     </defs>
     <g transform="translate(1474.981875 357.829595588)scale(0.12 -0.12)">
      <use xlink:href="#BitstreamVeraSans-Roman-2b"/>
      <use x="83.7890625" xlink:href="#BitstreamVeraSans-Roman-31"/>
      <use x="147.412109375" xlink:href="#BitstreamVeraSans-Roman-2e"/>
      <use x="179.19921875" xlink:href="#BitstreamVeraSans-Roman-33"/>
      <use x="242.822265625" xlink:href="#BitstreamVeraSans-Roman-35"/>
      <use x="306.4453125" xlink:href="#BitstreamVeraSans-Roman-37"/>
      <use x="370.068359375" xlink:href="#BitstreamVeraSans-Roman-39"/>
      <use x="433.69140625" xlink:href="#BitstreamVeraSans-Roman-39"/>
      <use x="497.314453125" xlink:href="#BitstreamVeraSans-Roman-34"/>
      <use x="560.9375" xlink:href="#BitstreamVeraSans-Roman-65"/>
      <use x="622.4609375" xlink:href="#BitstreamVeraSans-Roman-39"/>
     </g>
    </g>
   </g>
   <g id="matplotlib.axis_2">
    <g id="ytick_1">
     <g id="line2d_12">
      <defs>
       <path d="
M0 0
L4 0" id="me8a85f7bf6" style="stroke:#000000;stroke-linecap:butt;stroke-width:0.5;"/>
      </defs>
      <g>
       <use style="stroke:#000000;stroke-linecap:butt;stroke-width:0.5;" x="216.0" xlink:href="#me8a85f7bf6" y="332.846470588"/>
      </g>
     </g>
     <g id="line2d_13">
      <defs>
       <path d="
M0 0
L-4 0" id="m1a32005dea" style="stroke:#000000;stroke-linecap:butt;stroke-width:0.5;"/>
      </defs>
      <g>
       <use style="stroke:#000000;stroke-linecap:butt;stroke-width:0.5;" x="1555.2" xlink:href="#m1a32005dea" y="332.846470588"/>
      </g>
     </g>
     <g id="text_7">
      <!-- 0 -->
      <g transform="translate(205.953125 337.214283088)scale(0.12 -0.12)">
       <use xlink:href="#BitstreamVeraSans-Roman-30"/>
      </g>
     </g>
    </g>
    <g id="ytick_2">
     <g id="line2d_14">
      <g>
       <use style="stroke:#000000;stroke-linecap:butt;stroke-width:0.5;" x="216.0" xlink:href="#me8a85f7bf6" y="303.649411765"/>
      </g>
     </g>
     <g id="line2d_15">
      <g>
       <use style="stroke:#000000;stroke-linecap:butt;stroke-width:0.5;" x="1555.2" xlink:href="#m1a32005dea" y="303.649411765"/>
      </g>
     </g>
     <g id="text_8">
      <!-- 10 -->
      <g transform="translate(198.845 308.017224265)scale(0.12 -0.12)">
       <use xlink:href="#BitstreamVeraSans-Roman-31"/>
       <use x="63.623046875" xlink:href="#BitstreamVeraSans-Roman-30"/>
      </g>
     </g>
    </g>
    <g id="ytick_3">
     <g id="line2d_16">
      <g>
       <use style="stroke:#000000;stroke-linecap:butt;stroke-width:0.5;" x="216.0" xlink:href="#me8a85f7bf6" y="274.452352941"/>
      </g>
     </g>
     <g id="line2d_17">
      <g>
       <use style="stroke:#000000;stroke-linecap:butt;stroke-width:0.5;" x="1555.2" xlink:href="#m1a32005dea" y="274.452352941"/>
      </g>
     </g>
     <g id="text_9">
      <!-- 20 -->
      <g transform="translate(198.40625 278.820165441)scale(0.12 -0.12)">
       <use xlink:href="#BitstreamVeraSans-Roman-32"/>
       <use x="63.623046875" xlink:href="#BitstreamVeraSans-Roman-30"/>
      </g>
     </g>
    </g>
    <g id="ytick_4">
     <g id="line2d_18">
      <g>
       <use style="stroke:#000000;stroke-linecap:butt;stroke-width:0.5;" x="216.0" xlink:href="#me8a85f7bf6" y="245.255294118"/>
      </g>
     </g>
     <g id="line2d_19">
      <g>
       <use style="stroke:#000000;stroke-linecap:butt;stroke-width:0.5;" x="1555.2" xlink:href="#m1a32005dea" y="245.255294118"/>
      </g>
     </g>
     <g id="text_10">
      <!-- 30 -->
      <g transform="translate(198.441875 249.623106618)scale(0.12 -0.12)">
       <use xlink:href="#BitstreamVeraSans-Roman-33"/>
       <use x="63.623046875" xlink:href="#BitstreamVeraSans-Roman-30"/>
      </g>
     </g>
    </g>
    <g id="ytick_5">
     <g id="line2d_20">
      <g>
       <use style="stroke:#000000;stroke-linecap:butt;stroke-width:0.5;" x="216.0" xlink:href="#me8a85f7bf6" y="216.058235294"/>
      </g>
     </g>
     <g id="line2d_21">
      <g>
       <use style="stroke:#000000;stroke-linecap:butt;stroke-width:0.5;" x="1555.2" xlink:href="#m1a32005dea" y="216.058235294"/>
      </g>
     </g>
     <g id="text_11">
      <!-- 40 -->
      <g transform="translate(198.11375 220.426047794)scale(0.12 -0.12)">
       <use xlink:href="#BitstreamVeraSans-Roman-34"/>
       <use x="63.623046875" xlink:href="#BitstreamVeraSans-Roman-30"/>
      </g>
     </g>
    </g>
    <g id="ytick_6">
     <g id="line2d_22">
      <g>
       <use style="stroke:#000000;stroke-linecap:butt;stroke-width:0.5;" x="216.0" xlink:href="#me8a85f7bf6" y="186.861176471"/>
      </g>
     </g>
     <g id="line2d_23">
      <g>
       <use style="stroke:#000000;stroke-linecap:butt;stroke-width:0.5;" x="1555.2" xlink:href="#m1a32005dea" y="186.861176471"/>
      </g>
     </g>
     <g id="text_12">
      <!-- 50 -->
      <g transform="translate(198.453125 191.228988971)scale(0.12 -0.12)">
       <use xlink:href="#BitstreamVeraSans-Roman-35"/>
       <use x="63.623046875" xlink:href="#BitstreamVeraSans-Roman-30"/>
      </g>
     </g>
    </g>
    <g id="ytick_7">
     <g id="line2d_24">
      <g>
       <use style="stroke:#000000;stroke-linecap:butt;stroke-width:0.5;" x="216.0" xlink:href="#me8a85f7bf6" y="157.664117647"/>
      </g>
     </g>
     <g id="line2d_25">
      <g>
       <use style="stroke:#000000;stroke-linecap:butt;stroke-width:0.5;" x="1555.2" xlink:href="#m1a32005dea" y="157.664117647"/>
      </g>
     </g>
     <g id="text_13">
      <!-- 60 -->
      <defs>
       <path d="
M33.0156 40.375
Q26.375 40.375 22.4844 35.8281
Q18.6094 31.2969 18.6094 23.3906
Q18.6094 15.5312 22.4844 10.9531
Q26.375 6.39062 33.0156 6.39062
Q39.6562 6.39062 43.5312 10.9531
Q47.4062 15.5312 47.4062 23.3906
Q47.4062 31.2969 43.5312 35.8281
Q39.6562 40.375 33.0156 40.375
M52.5938 71.2969
L52.5938 62.3125
Q48.875 64.0625 45.0938 64.9844
Q41.3125 65.9219 37.5938 65.9219
Q27.8281 65.9219 22.6719 59.3281
Q17.5312 52.7344 16.7969 39.4062
Q19.6719 43.6562 24.0156 45.9219
Q28.375 48.1875 33.5938 48.1875
Q44.5781 48.1875 50.9531 41.5156
Q57.3281 34.8594 57.3281 23.3906
Q57.3281 12.1562 50.6875 5.35938
Q44.0469 -1.42188 33.0156 -1.42188
Q20.3594 -1.42188 13.6719 8.26562
Q6.98438 17.9688 6.98438 36.375
Q6.98438 53.6562 15.1875 63.9375
Q23.3906 74.2188 37.2031 74.2188
Q40.9219 74.2188 44.7031 73.4844
Q48.4844 72.75 52.5938 71.2969" id="BitstreamVeraSans-Roman-36"/>
      </defs>
      <g transform="translate(198.365 162.031930147)scale(0.12 -0.12)">
       <use xlink:href="#BitstreamVeraSans-Roman-36"/>
       <use x="63.623046875" xlink:href="#BitstreamVeraSans-Roman-30"/>
      </g>
     </g>
    </g>
    <g id="ytick_8">
     <g id="line2d_26">
      <g>
       <use style="stroke:#000000;stroke-linecap:butt;stroke-width:0.5;" x="216.0" xlink:href="#me8a85f7bf6" y="128.467058824"/>
      </g>
     </g>
     <g id="line2d_27">
      <g>
       <use style="stroke:#000000;stroke-linecap:butt;stroke-width:0.5;" x="1555.2" xlink:href="#m1a32005dea" y="128.467058824"/>
      </g>
     </g>
     <g id="text_14">
      <!-- 70 -->
      <g transform="translate(198.51125 132.834871324)scale(0.12 -0.12)">
       <use xlink:href="#BitstreamVeraSans-Roman-37"/>
       <use x="63.623046875" xlink:href="#BitstreamVeraSans-Roman-30"/>
      </g>
     </g>
    </g>
    <g id="ytick_9">
     <g id="line2d_28">
      <g>
       <use style="stroke:#000000;stroke-linecap:butt;stroke-width:0.5;" x="216.0" xlink:href="#me8a85f7bf6" y="99.27"/>
      </g>
     </g>
     <g id="line2d_29">
      <g>
       <use style="stroke:#000000;stroke-linecap:butt;stroke-width:0.5;" x="1555.2" xlink:href="#m1a32005dea" y="99.27"/>
      </g>
     </g>
     <g id="text_15">
      <!-- 80 -->
      <defs>
       <path d="
M31.7812 34.625
Q24.75 34.625 20.7188 30.8594
Q16.7031 27.0938 16.7031 20.5156
Q16.7031 13.9219 20.7188 10.1562
Q24.75 6.39062 31.7812 6.39062
Q38.8125 6.39062 42.8594 10.1719
Q46.9219 13.9688 46.9219 20.5156
Q46.9219 27.0938 42.8906 30.8594
Q38.875 34.625 31.7812 34.625
M21.9219 38.8125
Q15.5781 40.375 12.0312 44.7188
Q8.5 49.0781 8.5 55.3281
Q8.5 64.0625 14.7188 69.1406
Q20.9531 74.2188 31.7812 74.2188
Q42.6719 74.2188 48.875 69.1406
Q55.0781 64.0625 55.0781 55.3281
Q55.0781 49.0781 51.5312 44.7188
Q48 40.375 41.7031 38.8125
Q48.8281 37.1562 52.7969 32.3125
Q56.7812 27.4844 56.7812 20.5156
Q56.7812 9.90625 50.3125 4.23438
Q43.8438 -1.42188 31.7812 -1.42188
Q19.7344 -1.42188 13.25 4.23438
Q6.78125 9.90625 6.78125 20.5156
Q6.78125 27.4844 10.7812 32.3125
Q14.7969 37.1562 21.9219 38.8125
M18.3125 54.3906
Q18.3125 48.7344 21.8438 45.5625
Q25.3906 42.3906 31.7812 42.3906
Q38.1406 42.3906 41.7188 45.5625
Q45.3125 48.7344 45.3125 54.3906
Q45.3125 60.0625 41.7188 63.2344
Q38.1406 66.4062 31.7812 66.4062
Q25.3906 66.4062 21.8438 63.2344
Q18.3125 60.0625 18.3125 54.3906" id="BitstreamVeraSans-Roman-38"/>
      </defs>
      <g transform="translate(198.340625 103.6378125)scale(0.12 -0.12)">
       <use xlink:href="#BitstreamVeraSans-Roman-38"/>
       <use x="63.623046875" xlink:href="#BitstreamVeraSans-Roman-30"/>
      </g>
     </g>
    </g>
   </g>
   <g id="patch_3">
    <path d="
M216 99.27
L1555.2 99.27" style="fill:none;stroke:#000000;"/>
   </g>
   <g id="patch_4">
    <path d="
M1555.2 332.846
L1555.2 99.27" style="fill:none;stroke:#000000;"/>
   </g>
   <g id="patch_5">
    <path d="
M216 332.846
L1555.2 332.846" style="fill:none;stroke:#000000;"/>
   </g>
   <g id="patch_6">
    <path d="
M216 332.846
L216 99.27" style="fill:none;stroke:#000000;"/>
   </g>
  </g>
  <g id="axes_2">
   <g id="patch_7">
    <path d="
M216 613.138
L1555.2 613.138
L1555.2 379.562
L216 379.562
z
" style="fill:#ffffff;"/>
   </g>
   <g id="line2d_30">
    <path clip-path="url(#p0a5b58bde8)" d="
M217.485 593.117
L219.782 593.117
L234.203 379.562
L251.944 379.562
L253.326 446.298
L464.714 446.298
L466.584 379.562
L505.161 379.562
L505.655 566.423
L509.603 566.423
L510.968 446.298
L537.758 446.298
L539.605 379.562
L577.749 379.562
L578.236 566.423
L584.386 566.423
L602.421 379.562
L629.261 379.562
L629.732 566.423
L633.534 566.423
L634.882 446.298
L646.786 446.298
L648.637 379.562
L683.65 379.562
L684.496 513.034
L695.603 513.034
L696.979 446.298
L709.197 446.298
L711.092 379.562
L746.409 379.562
L747.249 513.034
L758.312 513.034
L759.658 446.298
L778.168 446.298
L780.037 379.562
L815.291 379.562
L816.185 513.034
L831.2 513.034
L843.976 379.562
L869.752 379.562
L870.245 566.423
L874.12 566.423
L875.502 446.298
L886.7 446.298
L888.588 379.562
L914.247 379.562
L915.094 513.034
L926.161 513.034
L927.514 446.298
L938.772 446.298
L940.599 379.562
L975.345 379.562
L976.237 513.034
L990.412 513.034
L1003.57 379.562
L1028.68 379.562
L1029.53 513.034
L1044.36 513.034
L1057.4 379.562
L1082.44 379.562
L1083.33 513.034
L1098.23 513.034
L1111.24 379.562
L1136.86 379.562
L1137.69 513.034
L1152.53 513.034
L1165.07 379.562
L1190.63 379.562
L1191.51 513.034
L1206.37 513.034
L1219.5 379.562
L1244.9 379.562
L1245.76 513.034
L1260.59 513.034
L1273.63 379.562
L1280.71 379.562
L1280.71 379.562" style="fill:none;stroke:#0000ff;"/>
   </g>
   <g id="matplotlib.axis_3">
    <g id="xtick_6">
     <g id="line2d_31">
      <g>
       <use style="stroke:#000000;stroke-linecap:butt;stroke-width:0.5;" x="333.5400002" xlink:href="#m0012dd4eef" y="613.138235294"/>
      </g>
     </g>
     <g id="line2d_32">
      <g>
       <use style="stroke:#000000;stroke-linecap:butt;stroke-width:0.5;" x="333.5400002" xlink:href="#m476344969c" y="379.561764706"/>
      </g>
     </g>
     <g id="text_16">
      <!-- 500 -->
      <g transform="translate(322.9490627 626.044485294)scale(0.12 -0.12)">
       <use xlink:href="#BitstreamVeraSans-Roman-35"/>
       <use x="63.623046875" xlink:href="#BitstreamVeraSans-Roman-30"/>
       <use x="127.24609375" xlink:href="#BitstreamVeraSans-Roman-30"/>
      </g>
     </g>
    </g>
    <g id="xtick_7">
     <g id="line2d_33">
      <g>
       <use style="stroke:#000000;stroke-linecap:butt;stroke-width:0.5;" x="601.380000114" xlink:href="#m0012dd4eef" y="613.138235294"/>
      </g>
     </g>
     <g id="line2d_34">
      <g>
       <use style="stroke:#000000;stroke-linecap:butt;stroke-width:0.5;" x="601.380000114" xlink:href="#m476344969c" y="379.561764706"/>
      </g>
     </g>
     <g id="text_17">
      <!-- 1000 -->
      <g transform="translate(587.167500114 626.044485294)scale(0.12 -0.12)">
       <use xlink:href="#BitstreamVeraSans-Roman-31"/>
       <use x="63.623046875" xlink:href="#BitstreamVeraSans-Roman-30"/>
       <use x="127.24609375" xlink:href="#BitstreamVeraSans-Roman-30"/>
       <use x="190.869140625" xlink:href="#BitstreamVeraSans-Roman-30"/>
      </g>
     </g>
    </g>
    <g id="xtick_8">
     <g id="line2d_35">
      <g>
       <use style="stroke:#000000;stroke-linecap:butt;stroke-width:0.5;" x="869.220000148" xlink:href="#m0012dd4eef" y="613.138235294"/>
      </g>
     </g>
     <g id="line2d_36">
      <g>
       <use style="stroke:#000000;stroke-linecap:butt;stroke-width:0.5;" x="869.220000148" xlink:href="#m476344969c" y="379.561764706"/>
      </g>
     </g>
     <g id="text_18">
      <!-- 1500 -->
      <g transform="translate(855.007500148 626.044485294)scale(0.12 -0.12)">
       <use xlink:href="#BitstreamVeraSans-Roman-31"/>
       <use x="63.623046875" xlink:href="#BitstreamVeraSans-Roman-35"/>
       <use x="127.24609375" xlink:href="#BitstreamVeraSans-Roman-30"/>
       <use x="190.869140625" xlink:href="#BitstreamVeraSans-Roman-30"/>
      </g>
     </g>
    </g>
    <g id="xtick_9">
     <g id="line2d_37">
      <g>
       <use style="stroke:#000000;stroke-linecap:butt;stroke-width:0.5;" x="1137.06000018" xlink:href="#m0012dd4eef" y="613.138235294"/>
      </g>
     </g>
     <g id="line2d_38">
      <g>
       <use style="stroke:#000000;stroke-linecap:butt;stroke-width:0.5;" x="1137.06000018" xlink:href="#m476344969c" y="379.561764706"/>
      </g>
     </g>
     <g id="text_19">
      <!-- 2000 -->
      <g transform="translate(1122.62812518 626.044485294)scale(0.12 -0.12)">
       <use xlink:href="#BitstreamVeraSans-Roman-32"/>
       <use x="63.623046875" xlink:href="#BitstreamVeraSans-Roman-30"/>
       <use x="127.24609375" xlink:href="#BitstreamVeraSans-Roman-30"/>
       <use x="190.869140625" xlink:href="#BitstreamVeraSans-Roman-30"/>
      </g>
     </g>
    </g>
    <g id="xtick_10">
     <g id="line2d_39">
      <g>
       <use style="stroke:#000000;stroke-linecap:butt;stroke-width:0.5;" x="1404.9000001" xlink:href="#m0012dd4eef" y="613.138235294"/>
      </g>
     </g>
     <g id="line2d_40">
      <g>
       <use style="stroke:#000000;stroke-linecap:butt;stroke-width:0.5;" x="1404.9000001" xlink:href="#m476344969c" y="379.561764706"/>
      </g>
     </g>
     <g id="text_20">
      <!-- 2500 -->
      <g transform="translate(1390.4681251 626.044485294)scale(0.12 -0.12)">
       <use xlink:href="#BitstreamVeraSans-Roman-32"/>
       <use x="63.623046875" xlink:href="#BitstreamVeraSans-Roman-35"/>
       <use x="127.24609375" xlink:href="#BitstreamVeraSans-Roman-30"/>
       <use x="190.869140625" xlink:href="#BitstreamVeraSans-Roman-30"/>
      </g>
     </g>
    </g>
    <g id="text_21">
     <!-- +1.357994e9 -->
     <g transform="translate(1474.981875 638.121360294)scale(0.12 -0.12)">
      <use xlink:href="#BitstreamVeraSans-Roman-2b"/>
      <use x="83.7890625" xlink:href="#BitstreamVeraSans-Roman-31"/>
      <use x="147.412109375" xlink:href="#BitstreamVeraSans-Roman-2e"/>
      <use x="179.19921875" xlink:href="#BitstreamVeraSans-Roman-33"/>
      <use x="242.822265625" xlink:href="#BitstreamVeraSans-Roman-35"/>
      <use x="306.4453125" xlink:href="#BitstreamVeraSans-Roman-37"/>
      <use x="370.068359375" xlink:href="#BitstreamVeraSans-Roman-39"/>
      <use x="433.69140625" xlink:href="#BitstreamVeraSans-Roman-39"/>
      <use x="497.314453125" xlink:href="#BitstreamVeraSans-Roman-34"/>
      <use x="560.9375" xlink:href="#BitstreamVeraSans-Roman-65"/>
      <use x="622.4609375" xlink:href="#BitstreamVeraSans-Roman-39"/>
     </g>
    </g>
   </g>
   <g id="matplotlib.axis_4">
    <g id="ytick_10">
     <g id="line2d_41">
      <g>
       <use style="stroke:#000000;stroke-linecap:butt;stroke-width:0.5;" x="216.0" xlink:href="#me8a85f7bf6" y="579.770168067"/>
      </g>
     </g>
     <g id="line2d_42">
      <g>
       <use style="stroke:#000000;stroke-linecap:butt;stroke-width:0.5;" x="1555.2" xlink:href="#m1a32005dea" y="579.770168067"/>
      </g>
     </g>
     <g id="text_22">
      <!-- 500 -->
      <g transform="translate(190.818125 584.137980567)scale(0.12 -0.12)">
       <use xlink:href="#BitstreamVeraSans-Roman-35"/>
       <use x="63.623046875" xlink:href="#BitstreamVeraSans-Roman-30"/>
       <use x="127.24609375" xlink:href="#BitstreamVeraSans-Roman-30"/>
      </g>
     </g>
    </g>
    <g id="ytick_11">
     <g id="line2d_43">
      <g>
       <use style="stroke:#000000;stroke-linecap:butt;stroke-width:0.5;" x="216.0" xlink:href="#me8a85f7bf6" y="546.40210084"/>
      </g>
     </g>
     <g id="line2d_44">
      <g>
       <use style="stroke:#000000;stroke-linecap:butt;stroke-width:0.5;" x="1555.2" xlink:href="#m1a32005dea" y="546.40210084"/>
      </g>
     </g>
     <g id="text_23">
      <!-- 1000 -->
      <g transform="translate(183.575 550.76991334)scale(0.12 -0.12)">
       <use xlink:href="#BitstreamVeraSans-Roman-31"/>
       <use x="63.623046875" xlink:href="#BitstreamVeraSans-Roman-30"/>
       <use x="127.24609375" xlink:href="#BitstreamVeraSans-Roman-30"/>
       <use x="190.869140625" xlink:href="#BitstreamVeraSans-Roman-30"/>
      </g>
     </g>
    </g>
    <g id="ytick_12">
     <g id="line2d_45">
      <g>
       <use style="stroke:#000000;stroke-linecap:butt;stroke-width:0.5;" x="216.0" xlink:href="#me8a85f7bf6" y="513.034033613"/>
      </g>
     </g>
     <g id="line2d_46">
      <g>
       <use style="stroke:#000000;stroke-linecap:butt;stroke-width:0.5;" x="1555.2" xlink:href="#m1a32005dea" y="513.034033613"/>
      </g>
     </g>
     <g id="text_24">
      <!-- 1500 -->
      <g transform="translate(183.575 517.401846113)scale(0.12 -0.12)">
       <use xlink:href="#BitstreamVeraSans-Roman-31"/>
       <use x="63.623046875" xlink:href="#BitstreamVeraSans-Roman-35"/>
       <use x="127.24609375" xlink:href="#BitstreamVeraSans-Roman-30"/>
       <use x="190.869140625" xlink:href="#BitstreamVeraSans-Roman-30"/>
      </g>
     </g>
    </g>
    <g id="ytick_13">
     <g id="line2d_47">
      <g>
       <use style="stroke:#000000;stroke-linecap:butt;stroke-width:0.5;" x="216.0" xlink:href="#me8a85f7bf6" y="479.665966387"/>
      </g>
     </g>
     <g id="line2d_48">
      <g>
       <use style="stroke:#000000;stroke-linecap:butt;stroke-width:0.5;" x="1555.2" xlink:href="#m1a32005dea" y="479.665966387"/>
      </g>
     </g>
     <g id="text_25">
      <!-- 2000 -->
      <g transform="translate(183.13625 484.033778887)scale(0.12 -0.12)">
       <use xlink:href="#BitstreamVeraSans-Roman-32"/>
       <use x="63.623046875" xlink:href="#BitstreamVeraSans-Roman-30"/>
       <use x="127.24609375" xlink:href="#BitstreamVeraSans-Roman-30"/>
       <use x="190.869140625" xlink:href="#BitstreamVeraSans-Roman-30"/>
      </g>
     </g>
    </g>
    <g id="ytick_14">
     <g id="line2d_49">
      <g>
       <use style="stroke:#000000;stroke-linecap:butt;stroke-width:0.5;" x="216.0" xlink:href="#me8a85f7bf6" y="446.29789916"/>
      </g>
     </g>
     <g id="line2d_50">
      <g>
       <use style="stroke:#000000;stroke-linecap:butt;stroke-width:0.5;" x="1555.2" xlink:href="#m1a32005dea" y="446.29789916"/>
      </g>
     </g>
     <g id="text_26">
      <!-- 2500 -->
      <g transform="translate(183.13625 450.66571166)scale(0.12 -0.12)">
       <use xlink:href="#BitstreamVeraSans-Roman-32"/>
       <use x="63.623046875" xlink:href="#BitstreamVeraSans-Roman-35"/>
       <use x="127.24609375" xlink:href="#BitstreamVeraSans-Roman-30"/>
       <use x="190.869140625" xlink:href="#BitstreamVeraSans-Roman-30"/>
      </g>
     </g>
    </g>
    <g id="ytick_15">
     <g id="line2d_51">
      <g>
       <use style="stroke:#000000;stroke-linecap:butt;stroke-width:0.5;" x="216.0" xlink:href="#me8a85f7bf6" y="412.929831933"/>
      </g>
     </g>
     <g id="line2d_52">
      <g>
       <use style="stroke:#000000;stroke-linecap:butt;stroke-width:0.5;" x="1555.2" xlink:href="#m1a32005dea" y="412.929831933"/>
      </g>
     </g>
     <g id="text_27">
      <!-- 3000 -->
      <g transform="translate(183.171875 417.297644433)scale(0.12 -0.12)">
       <use xlink:href="#BitstreamVeraSans-Roman-33"/>
       <use x="63.623046875" xlink:href="#BitstreamVeraSans-Roman-30"/>
       <use x="127.24609375" xlink:href="#BitstreamVeraSans-Roman-30"/>
       <use x="190.869140625" xlink:href="#BitstreamVeraSans-Roman-30"/>
      </g>
     </g>
    </g>
    <g id="ytick_16">
     <g id="line2d_53">
      <g>
       <use style="stroke:#000000;stroke-linecap:butt;stroke-width:0.5;" x="216.0" xlink:href="#me8a85f7bf6" y="379.561764706"/>
      </g>
     </g>
     <g id="line2d_54">
      <g>
       <use style="stroke:#000000;stroke-linecap:butt;stroke-width:0.5;" x="1555.2" xlink:href="#m1a32005dea" y="379.561764706"/>
      </g>
     </g>
     <g id="text_28">
      <!-- 3500 -->
      <g transform="translate(183.171875 383.929577206)scale(0.12 -0.12)">
       <use xlink:href="#BitstreamVeraSans-Roman-33"/>
       <use x="63.623046875" xlink:href="#BitstreamVeraSans-Roman-35"/>
       <use x="127.24609375" xlink:href="#BitstreamVeraSans-Roman-30"/>
       <use x="190.869140625" xlink:href="#BitstreamVeraSans-Roman-30"/>
      </g>
     </g>
    </g>
   </g>
   <g id="patch_8">
    <path d="
M216 379.562
L1555.2 379.562" style="fill:none;stroke:#000000;"/>
   </g>
   <g id="patch_9">
    <path d="
M1555.2 613.138
L1555.2 379.562" style="fill:none;stroke:#000000;"/>
   </g>
   <g id="patch_10">
    <path d="
M216 613.138
L1555.2 613.138" style="fill:none;stroke:#000000;"/>
   </g>
   <g id="patch_11">
    <path d="
M216 613.138
L216 379.562" style="fill:none;stroke:#000000;"/>
   </g>
  </g>
  <g id="axes_3">
   <g id="patch_12">
    <path d="
M216 893.43
L1555.2 893.43
L1555.2 659.854
L216 659.854
z
" style="fill:#ffffff;"/>
   </g>
   <g id="line2d_55">
    <path clip-path="url(#p5c92a4f9cc)" d="
M216 873.409
L234.749 873.409
L233.41 873.409
L236.088 659.854
L250.819 659.854
L252.158 726.59
L532.051 726.59
L533.39 659.854
L569.549 659.854
L570.888 846.715
L586.958 846.715
L588.298 726.59
L623.117 726.59
L624.456 659.854
L660.614 659.854
L661.954 846.715
L686.059 846.715
L687.398 659.854
L714.182 659.854
L715.522 846.715
L731.592 846.715
L730.253 846.715
L732.931 726.59
L749.002 726.59
L750.341 659.854
L785.16 659.854
L786.499 793.326
L810.605 793.326
L811.944 726.59
L828.014 726.59
L829.354 659.854
L865.512 659.854
L866.851 793.326
L890.957 793.326
L892.296 726.59
L916.402 726.59
L917.741 659.854
L953.899 659.854
L955.238 793.326
L987.379 793.326
L988.718 659.854
L1014.16 659.854
L1015.5 846.715
L1031.57 846.715
L1032.91 726.59
L1047.64 726.59
L1048.98 659.854
L1071.75 659.854
L1073.09 793.326
L1097.19 793.326
L1098.53 726.59
L1113.26 726.59
L1114.6 659.854
L1149.42 659.854
L1150.76 793.326
L1181.56 793.326
L1182.9 659.854
L1207.01 659.854
L1208.35 793.326
L1240.49 793.326
L1241.83 659.854
L1265.93 659.854
L1267.27 793.326
L1299.41 793.326
L1300.75 659.854
L1326.2 659.854
L1327.54 793.326
L1359.68 793.326
L1361.02 659.854
L1386.46 659.854
L1387.8 793.326
L1419.94 793.326
L1421.28 659.854
L1446.72 659.854
L1448.06 793.326
L1480.2 793.326
L1481.54 659.854
L1488.24 659.854
L1488.24 659.854" style="fill:none;stroke:#0000ff;"/>
   </g>
   <g id="matplotlib.axis_5">
    <g id="xtick_11">
     <g id="line2d_56">
      <g>
       <use style="stroke:#000000;stroke-linecap:butt;stroke-width:0.5;" x="216.0" xlink:href="#m0012dd4eef" y="893.43"/>
      </g>
     </g>
     <g id="line2d_57">
      <g>
       <use style="stroke:#000000;stroke-linecap:butt;stroke-width:0.5;" x="216.0" xlink:href="#m476344969c" y="659.853529412"/>
      </g>
     </g>
     <g id="text_29">
      <!-- 0 -->
      <g transform="translate(212.9765625 906.33625)scale(0.12 -0.12)">
       <use xlink:href="#BitstreamVeraSans-Roman-30"/>
      </g>
     </g>
    </g>
    <g id="xtick_12">
     <g id="line2d_58">
      <g>
       <use style="stroke:#000000;stroke-linecap:butt;stroke-width:0.5;" x="483.84" xlink:href="#m0012dd4eef" y="893.43"/>
      </g>
     </g>
     <g id="line2d_59">
      <g>
       <use style="stroke:#000000;stroke-linecap:butt;stroke-width:0.5;" x="483.84" xlink:href="#m476344969c" y="659.853529412"/>
      </g>
     </g>
     <g id="text_30">
      <!-- 200 -->
      <g transform="translate(473.225625 906.33625)scale(0.12 -0.12)">
       <use xlink:href="#BitstreamVeraSans-Roman-32"/>
       <use x="63.623046875" xlink:href="#BitstreamVeraSans-Roman-30"/>
       <use x="127.24609375" xlink:href="#BitstreamVeraSans-Roman-30"/>
      </g>
     </g>
    </g>
    <g id="xtick_13">
     <g id="line2d_60">
      <g>
       <use style="stroke:#000000;stroke-linecap:butt;stroke-width:0.5;" x="751.68" xlink:href="#m0012dd4eef" y="893.43"/>
      </g>
     </g>
     <g id="line2d_61">
      <g>
       <use style="stroke:#000000;stroke-linecap:butt;stroke-width:0.5;" x="751.68" xlink:href="#m476344969c" y="659.853529412"/>
      </g>
     </g>
     <g id="text_31">
      <!-- 400 -->
      <g transform="translate(740.919375 906.33625)scale(0.12 -0.12)">
       <use xlink:href="#BitstreamVeraSans-Roman-34"/>
       <use x="63.623046875" xlink:href="#BitstreamVeraSans-Roman-30"/>
       <use x="127.24609375" xlink:href="#BitstreamVeraSans-Roman-30"/>
      </g>
     </g>
    </g>
    <g id="xtick_14">
     <g id="line2d_62">
      <g>
       <use style="stroke:#000000;stroke-linecap:butt;stroke-width:0.5;" x="1019.52" xlink:href="#m0012dd4eef" y="893.43"/>
      </g>
     </g>
     <g id="line2d_63">
      <g>
       <use style="stroke:#000000;stroke-linecap:butt;stroke-width:0.5;" x="1019.52" xlink:href="#m476344969c" y="659.853529412"/>
      </g>
     </g>
     <g id="text_32">
      <!-- 600 -->
      <g transform="translate(1008.885 906.33625)scale(0.12 -0.12)">
       <use xlink:href="#BitstreamVeraSans-Roman-36"/>
       <use x="63.623046875" xlink:href="#BitstreamVeraSans-Roman-30"/>
       <use x="127.24609375" xlink:href="#BitstreamVeraSans-Roman-30"/>
      </g>
     </g>
    </g>
    <g id="xtick_15">
     <g id="line2d_64">
      <g>
       <use style="stroke:#000000;stroke-linecap:butt;stroke-width:0.5;" x="1287.36" xlink:href="#m0012dd4eef" y="893.43"/>
      </g>
     </g>
     <g id="line2d_65">
      <g>
       <use style="stroke:#000000;stroke-linecap:butt;stroke-width:0.5;" x="1287.36" xlink:href="#m476344969c" y="659.853529412"/>
      </g>
     </g>
     <g id="text_33">
      <!-- 800 -->
      <g transform="translate(1276.7128125 906.33625)scale(0.12 -0.12)">
       <use xlink:href="#BitstreamVeraSans-Roman-38"/>
       <use x="63.623046875" xlink:href="#BitstreamVeraSans-Roman-30"/>
       <use x="127.24609375" xlink:href="#BitstreamVeraSans-Roman-30"/>
      </g>
     </g>
    </g>
    <g id="xtick_16">
     <g id="line2d_66">
      <g>
       <use style="stroke:#000000;stroke-linecap:butt;stroke-width:0.5;" x="1555.2" xlink:href="#m0012dd4eef" y="893.43"/>
      </g>
     </g>
     <g id="line2d_67">
      <g>
       <use style="stroke:#000000;stroke-linecap:butt;stroke-width:0.5;" x="1555.2" xlink:href="#m476344969c" y="659.853529412"/>
      </g>
     </g>
     <g id="text_34">
      <!-- 1000 -->
      <g transform="translate(1540.9875 906.33625)scale(0.12 -0.12)">
       <use xlink:href="#BitstreamVeraSans-Roman-31"/>
       <use x="63.623046875" xlink:href="#BitstreamVeraSans-Roman-30"/>
       <use x="127.24609375" xlink:href="#BitstreamVeraSans-Roman-30"/>
       <use x="190.869140625" xlink:href="#BitstreamVeraSans-Roman-30"/>
      </g>
     </g>
    </g>
   </g>
   <g id="matplotlib.axis_6">
    <g id="ytick_17">
     <g id="line2d_68">
      <g>
       <use style="stroke:#000000;stroke-linecap:butt;stroke-width:0.5;" x="216.0" xlink:href="#me8a85f7bf6" y="893.43"/>
      </g>
     </g>
     <g id="line2d_69">
      <g>
       <use style="stroke:#000000;stroke-linecap:butt;stroke-width:0.5;" x="1555.2" xlink:href="#m1a32005dea" y="893.43"/>
      </g>
     </g>
     <g id="text_35">
      <!-- 0 -->
      <g transform="translate(205.953125 897.7978125)scale(0.12 -0.12)">
       <use xlink:href="#BitstreamVeraSans-Roman-30"/>
      </g>
     </g>
    </g>
    <g id="ytick_18">
     <g id="line2d_70">
      <g>
       <use style="stroke:#000000;stroke-linecap:butt;stroke-width:0.5;" x="216.0" xlink:href="#me8a85f7bf6" y="860.061932773"/>
      </g>
     </g>
     <g id="line2d_71">
      <g>
       <use style="stroke:#000000;stroke-linecap:butt;stroke-width:0.5;" x="1555.2" xlink:href="#m1a32005dea" y="860.061932773"/>
      </g>
     </g>
     <g id="text_36">
      <!-- 500 -->
      <g transform="translate(190.818125 864.429745273)scale(0.12 -0.12)">
       <use xlink:href="#BitstreamVeraSans-Roman-35"/>
       <use x="63.623046875" xlink:href="#BitstreamVeraSans-Roman-30"/>
       <use x="127.24609375" xlink:href="#BitstreamVeraSans-Roman-30"/>
      </g>
     </g>
    </g>
    <g id="ytick_19">
     <g id="line2d_72">
      <g>
       <use style="stroke:#000000;stroke-linecap:butt;stroke-width:0.5;" x="216.0" xlink:href="#me8a85f7bf6" y="826.693865546"/>
      </g>
     </g>
     <g id="line2d_73">
      <g>
       <use style="stroke:#000000;stroke-linecap:butt;stroke-width:0.5;" x="1555.2" xlink:href="#m1a32005dea" y="826.693865546"/>
      </g>
     </g>
     <g id="text_37">
      <!-- 1000 -->
      <g transform="translate(183.575 831.061678046)scale(0.12 -0.12)">
       <use xlink:href="#BitstreamVeraSans-Roman-31"/>
       <use x="63.623046875" xlink:href="#BitstreamVeraSans-Roman-30"/>
       <use x="127.24609375" xlink:href="#BitstreamVeraSans-Roman-30"/>
       <use x="190.869140625" xlink:href="#BitstreamVeraSans-Roman-30"/>
      </g>
     </g>
    </g>
    <g id="ytick_20">
     <g id="line2d_74">
      <g>
       <use style="stroke:#000000;stroke-linecap:butt;stroke-width:0.5;" x="216.0" xlink:href="#me8a85f7bf6" y="793.325798319"/>
      </g>
     </g>
     <g id="line2d_75">
      <g>
       <use style="stroke:#000000;stroke-linecap:butt;stroke-width:0.5;" x="1555.2" xlink:href="#m1a32005dea" y="793.325798319"/>
      </g>
     </g>
     <g id="text_38">
      <!-- 1500 -->
      <g transform="translate(183.575 797.693610819)scale(0.12 -0.12)">
       <use xlink:href="#BitstreamVeraSans-Roman-31"/>
       <use x="63.623046875" xlink:href="#BitstreamVeraSans-Roman-35"/>
       <use x="127.24609375" xlink:href="#BitstreamVeraSans-Roman-30"/>
       <use x="190.869140625" xlink:href="#BitstreamVeraSans-Roman-30"/>
      </g>
     </g>
    </g>
    <g id="ytick_21">
     <g id="line2d_76">
      <g>
       <use style="stroke:#000000;stroke-linecap:butt;stroke-width:0.5;" x="216.0" xlink:href="#me8a85f7bf6" y="759.957731092"/>
      </g>
     </g>
     <g id="line2d_77">
      <g>
       <use style="stroke:#000000;stroke-linecap:butt;stroke-width:0.5;" x="1555.2" xlink:href="#m1a32005dea" y="759.957731092"/>
      </g>
     </g>
     <g id="text_39">
      <!-- 2000 -->
      <g transform="translate(183.13625 764.325543592)scale(0.12 -0.12)">
       <use xlink:href="#BitstreamVeraSans-Roman-32"/>
       <use x="63.623046875" xlink:href="#BitstreamVeraSans-Roman-30"/>
       <use x="127.24609375" xlink:href="#BitstreamVeraSans-Roman-30"/>
       <use x="190.869140625" xlink:href="#BitstreamVeraSans-Roman-30"/>
      </g>
     </g>
    </g>
    <g id="ytick_22">
     <g id="line2d_78">
      <g>
       <use style="stroke:#000000;stroke-linecap:butt;stroke-width:0.5;" x="216.0" xlink:href="#me8a85f7bf6" y="726.589663866"/>
      </g>
     </g>
     <g id="line2d_79">
      <g>
       <use style="stroke:#000000;stroke-linecap:butt;stroke-width:0.5;" x="1555.2" xlink:href="#m1a32005dea" y="726.589663866"/>
      </g>
     </g>
     <g id="text_40">
      <!-- 2500 -->
      <g transform="translate(183.13625 730.957476366)scale(0.12 -0.12)">
       <use xlink:href="#BitstreamVeraSans-Roman-32"/>
       <use x="63.623046875" xlink:href="#BitstreamVeraSans-Roman-35"/>
       <use x="127.24609375" xlink:href="#BitstreamVeraSans-Roman-30"/>
       <use x="190.869140625" xlink:href="#BitstreamVeraSans-Roman-30"/>
      </g>
     </g>
    </g>
    <g id="ytick_23">
     <g id="line2d_80">
      <g>
       <use style="stroke:#000000;stroke-linecap:butt;stroke-width:0.5;" x="216.0" xlink:href="#me8a85f7bf6" y="693.221596639"/>
      </g>
     </g>
     <g id="line2d_81">
      <g>
       <use style="stroke:#000000;stroke-linecap:butt;stroke-width:0.5;" x="1555.2" xlink:href="#m1a32005dea" y="693.221596639"/>
      </g>
     </g>
     <g id="text_41">
      <!-- 3000 -->
      <g transform="translate(183.171875 697.589409139)scale(0.12 -0.12)">
       <use xlink:href="#BitstreamVeraSans-Roman-33"/>
       <use x="63.623046875" xlink:href="#BitstreamVeraSans-Roman-30"/>
       <use x="127.24609375" xlink:href="#BitstreamVeraSans-Roman-30"/>
       <use x="190.869140625" xlink:href="#BitstreamVeraSans-Roman-30"/>
      </g>
     </g>
    </g>
    <g id="ytick_24">
     <g id="line2d_82">
      <g>
       <use style="stroke:#000000;stroke-linecap:butt;stroke-width:0.5;" x="216.0" xlink:href="#me8a85f7bf6" y="659.853529412"/>
      </g>
     </g>
     <g id="line2d_83">
      <g>
       <use style="stroke:#000000;stroke-linecap:butt;stroke-width:0.5;" x="1555.2" xlink:href="#m1a32005dea" y="659.853529412"/>
      </g>
     </g>
     <g id="text_42">
      <!-- 3500 -->
      <g transform="translate(183.171875 664.221341912)scale(0.12 -0.12)">
       <use xlink:href="#BitstreamVeraSans-Roman-33"/>
       <use x="63.623046875" xlink:href="#BitstreamVeraSans-Roman-35"/>
       <use x="127.24609375" xlink:href="#BitstreamVeraSans-Roman-30"/>
       <use x="190.869140625" xlink:href="#BitstreamVeraSans-Roman-30"/>
      </g>
     </g>
    </g>
   </g>
   <g id="patch_13">
    <path d="
M216 659.854
L1555.2 659.854" style="fill:none;stroke:#000000;"/>
   </g>
   <g id="patch_14">
    <path d="
M1555.2 893.43
L1555.2 659.854" style="fill:none;stroke:#000000;"/>
   </g>
   <g id="patch_15">
    <path d="
M216 893.43
L1555.2 893.43" style="fill:none;stroke:#000000;"/>
   </g>
   <g id="patch_16">
    <path d="
M216 893.43
L216 659.854" style="fill:none;stroke:#000000;"/>
   </g>
  </g>
 </g>
 <defs>
  <clipPath id="p5c92a4f9cc">
   <rect height="233.576470588" width="1339.2" x="216.0" y="659.853529412"/>
  </clipPath>
  <clipPath id="p0a5b58bde8">
   <rect height="233.576470588" width="1339.2" x="216.0" y="379.561764706"/>
  </clipPath>
  <clipPath id="pec620c0aee">
   <rect height="233.576470588" width="1339.2" x="216.0" y="99.27"/>
  </clipPath>
 </defs>
</svg>
